<?xml version="1.0" encoding="iso-8859-1"?>
<!-- Generator: Adobe Illustrator 24.0.2, SVG Export Plug-In . SVG Version: 6.00 Build 0)  -->
<svg version="1.1" id="&#x421;&#x43B;&#x43E;&#x439;_1"
	 xmlns="http://www.w3.org/2000/svg" xmlns:xlink="http://www.w3.org/1999/xlink" x="0px" y="0px" viewBox="0 0 64 64"
	 style="enable-background:new 0 0 64 64;" xml:space="preserve">
<path style="fill:none;stroke:#000000;stroke-width:2;stroke-linejoin:round;stroke-miterlimit:10;" d="M24,19
	c0,8.333,0,16.667,0,25c-3-0.667-6-1.333-9-2c0.205,2,0.41,4,0.615,6c4.462,1.272,8.923,2.543,13.385,3.815V19
	C27.333,19,25.667,19,24,19z"/>
<path style="fill:none;stroke:#000000;stroke-width:2;stroke-linejoin:round;stroke-miterlimit:10;" d="M49.821,24.048L50.256,19
	C45.171,19,40.085,19,35,19c0,7.333,0,14.667,0,22c2.982-0.689,5.964-1.378,8.946-2.066l-0.316,4.733
	C40.754,44.444,37.877,45.222,35,46c0,2,0,4,0,6c4.244-1.219,8.488-2.437,12.732-3.656l1.33-15.461
	C46.042,33.255,43.021,33.628,40,34c0-3.333,0-6.667,0-10C43.274,24.016,46.547,24.032,49.821,24.048z"/>
<path style="fill:none;stroke:#000000;stroke-width:2;stroke-linejoin:round;stroke-miterlimit:10;" d="M5.015,7.244l5.466,45.246
	c0.194,1.603,1.337,2.935,2.9,3.379l17.535,4.977c0.709,0.201,1.46,0.206,2.172,0.013l18.442-4.996
	c1.614-0.437,2.789-1.817,2.955-3.471l4.549-45.187C59.153,6.024,58.22,5,57.025,5H7.019C5.809,5,4.87,6.051,5.015,7.244z"/>
<path style="fill:none;stroke:#000000;stroke-width:2;stroke-linecap:round;stroke-linejoin:round;stroke-miterlimit:10;" d="M7,9v2
	 M12,9v2 M17,9v2 M22,9v2 M27,9v2 M32,9v2 M37,9v2 M42,9v2 M47,9v2 M52,9v2 M57,9v2"/>
</svg>