<svg xmlns="http://www.w3.org/2000/svg" xmlns:xlink="http://www.w3.org/1999/xlink" viewBox="0,0,256,256" width="480px" height="480px" fill-rule="nonzero"><g fill="none" fill-rule="nonzero" stroke="none" stroke-width="1" stroke-linecap="butt" stroke-linejoin="miter" stroke-miterlimit="10" stroke-dasharray="" stroke-dashoffset="0" font-family="none" font-weight="none" font-size="none" text-anchor="none" style="mix-blend-mode: normal"><g transform="scale(5.33333,5.33333)"><circle cx="24" cy="24" r="21" fill="#fcfdfa"></circle><path d="M24,45c-11.579,0 -21,-9.421 -21,-21c0,-11.579 9.421,-21 21,-21c11.579,0 21,9.421 21,21c0,11.579 -9.421,21 -21,21zM24,4c-11.028,0 -20,8.972 -20,20c0,11.028 8.972,20 20,20c11.028,0 20,-8.972 20,-20c0,-11.028 -8.972,-20 -20,-20z" fill="#bdbdbd"></path><path d="M24,41c-9.374,0 -17,-7.626 -17,-17c0,-9.374 7.626,-17 17,-17c9.374,0 17,7.626 17,17c0,9.374 -7.626,17 -17,17zM24,8c-8.822,0 -16,7.178 -16,16c0,8.822 7.178,16 16,16c8.822,0 16,-7.178 16,-16c0,-8.822 -7.178,-16 -16,-16z" fill="#bdbdbd"></path><path d="M24,37c-7.168,0 -13,-5.832 -13,-13c0,-7.168 5.832,-13 13,-13c7.168,0 13,5.832 13,13c0,7.168 -5.832,13 -13,13zM24,12c-6.617,0 -12,5.383 -12,12c0,6.617 5.383,12 12,12c6.617,0 12,-5.383 12,-12c0,-6.617 -5.383,-12 -12,-12z" fill="#bdbdbd"></path><path d="M24,33c-4.963,0 -9,-4.037 -9,-9c0,-4.963 4.037,-9 9,-9c4.963,0 9,4.037 9,9c0,4.963 -4.037,9 -9,9zM24,16c-4.411,0 -8,3.589 -8,8c0,4.411 3.589,8 8,8c4.411,0 8,-3.589 8,-8c0,-4.411 -3.589,-8 -8,-8z" fill="#bdbdbd"></path><path d="M24,29c-2.757,0 -5,-2.243 -5,-5c0,-2.757 2.243,-5 5,-5c2.757,0 5,2.243 5,5c0,2.757 -2.243,5 -5,5zM24,20c-2.206,0 -4,1.794 -4,4c0,2.206 1.794,4 4,4c2.206,0 4,-1.794 4,-4c0,-2.206 -1.794,-4 -4,-4z" fill="#bdbdbd"></path><rect x="23.5" y="3" width="1" height="21" fill="#bdbdbd"></rect><rect x="-0.50041" y="13.43508" transform="rotate(-45.001)" width="1" height="20.506" fill="#bdbdbd"></rect><rect x="4" y="23.5" width="20" height="1" fill="#bdbdbd"></rect><rect x="-20.50664" y="33.44095" transform="rotate(-45.001)" width="20.506" height="1" fill="#bdbdbd"></rect><rect x="23.5" y="24" width="1" height="21" fill="#bdbdbd"></rect><rect x="-0.50148" y="33.94038" transform="rotate(-45.001)" width="1" height="20.408" fill="#bdbdbd"></rect><rect x="24" y="23.5" width="21" height="1" fill="#bdbdbd"></rect><rect x="-0.00054" y="33.4413" transform="rotate(-45.001)" width="20.506" height="1" fill="#bdbdbd"></rect><path d="M24,24l-11,-15l6,-3z" fill="#0c0c0c"></path><path d="M24,24l4,-14l4,2z" fill="#2f2f2e"></path><path d="M8.5,20v8l15.5,-4z" fill="#646463"></path><path d="M24,24l-2,11h4z" fill="#d5d7d4"></path><path d="M24,24l11,15l4,-4z" fill="#5f5d5b"></path><path d="M14,28l10,-4l-9,6z" fill="#525358"></path><path d="M29.564,20.872l-5.564,3.128l6.138,-1.532z" fill="#525358"></path></g></g></svg>