<?xml version="1.0" encoding="iso-8859-1"?><!-- Generator: Adobe Illustrator 22.1.0, SVG Export Plug-In . SVG Version: 6.00 Build 0)  --><svg xmlns="http://www.w3.org/2000/svg" xmlns:xlink="http://www.w3.org/1999/xlink" viewBox="0 0 64 64" width="512px" height="512px"><path style="fill:none;stroke:#000000;stroke-miterlimit:10;" d="M32,4c-9.927,0-13,4.709-13,7.764V17h13v4H11.764C7.818,21,4,23.855,4,32s3.818,11,7.764,11h7.509v-5.909c0-2.8,2.291-5.091,5.091-5.091h15.273c2.8,0,5.364-2.291,5.364-5.091V11.764C45,8.582,41.927,4,32,4z"/><path style="fill:none;stroke:#000000;stroke-miterlimit:10;" d="M32,60c9.927,0,12.727-4.709,12.727-7.764V47H32v-4h20.236C56.182,43,60,40.145,60,32s-3.818-11-7.764-11H45v5.909c0,2.8-2.564,5.091-5.364,5.091H24.364C21.564,32,19,34.291,19,37.091v15.145C19,55.291,22.073,60,32,60z"/><circle cx="26.5" cy="11.5" r="2.5"/><circle cx="38.5" cy="52.5" r="2.5"/><path style="fill:none;stroke:#000000;stroke-width:2;stroke-miterlimit:10;" d="M32,4c-9.927,0-13,4.709-13,7.764V17h13v4H11.764C7.818,21,4,23.855,4,32s3.818,11,7.764,11H19v-5.909c0-2.8,2.564-5.091,5.364-5.091h15.273c2.8,0,5.364-2.291,5.364-5.091V11.764C45,8.582,41.927,4,32,4z"/><path style="fill:none;stroke:#000000;stroke-width:2;stroke-miterlimit:10;" d="M32,60c9.927,0,13-4.709,13-7.764V47H32v-4h20.236C56.182,43,60,40.145,60,32s-3.818-11-7.764-11H45v5.909c0,2.8-2.564,5.091-5.364,5.091H24.364C21.564,32,19,34.291,19,37.091v15.145C19,55.291,22.073,60,32,60z"/><g><g><line style="fill:none;stroke:#000000;stroke-width:2;stroke-linecap:round;stroke-miterlimit:10;" x1="37.652" y1="37" x2="37.652" y2="39"/></g><g><line style="fill:none;stroke:#000000;stroke-width:2;stroke-linecap:round;stroke-miterlimit:10;" x1="42.217" y1="37" x2="42.217" y2="39"/></g><g><line style="fill:none;stroke:#000000;stroke-width:2;stroke-linecap:round;stroke-miterlimit:10;" x1="46.783" y1="37" x2="46.783" y2="39"/></g><g><line style="fill:none;stroke:#000000;stroke-width:2;stroke-linecap:round;stroke-miterlimit:10;" x1="51.348" y1="37" x2="51.348" y2="39"/></g></g><g><g><line style="fill:none;stroke:#000000;stroke-width:2;stroke-linecap:round;stroke-miterlimit:10;" x1="15.652" y1="25.083" x2="15.652" y2="27.083"/></g><g><line style="fill:none;stroke:#000000;stroke-width:2;stroke-linecap:round;stroke-miterlimit:10;" x1="20.217" y1="25.083" x2="20.217" y2="27.083"/></g><g><line style="fill:none;stroke:#000000;stroke-width:2;stroke-linecap:round;stroke-miterlimit:10;" x1="24.783" y1="25.083" x2="24.783" y2="27.083"/></g><g><line style="fill:none;stroke:#000000;stroke-width:2;stroke-linecap:round;stroke-miterlimit:10;" x1="29.348" y1="25.083" x2="29.348" y2="27.083"/></g></g></svg>