<?xml version="1.0" encoding="iso-8859-1"?>
<!-- Generator: Adobe Illustrator 25.2.3, SVG Export Plug-In . SVG Version: 6.00 Build 0)  -->
<svg version="1.1" baseProfile="basic" xmlns="http://www.w3.org/2000/svg" xmlns:xlink="http://www.w3.org/1999/xlink" x="0px"
	 y="0px" viewBox="0 0 64 64" xml:space="preserve">
<path style="fill:none;stroke:#000000;stroke-width:2;stroke-linejoin:round;stroke-miterlimit:10;" d="M6.62,19.142
	c0,0,4.636-2.505,5.289-2.505c0.305,0,0.583,0.116,0.793,0.305c0.163,0.148,33.503,27.205,33.503,27.205"/>
<path style="fill:none;stroke:#000000;stroke-width:2;stroke-linecap:round;stroke-linejoin:round;stroke-miterlimit:10;" d="
	M12.499,48.388c-0.174,0.1-0.375,0.157-0.59,0.157c-0.157,0-0.306-0.031-0.443-0.086c-0.433-0.175-4.773-2.384-4.773-2.384"/>
<path style="fill:none;stroke:#000000;stroke-width:2;stroke-linecap:round;stroke-linejoin:round;stroke-miterlimit:10;" d="
	M25.06,37.884c0,0-12.504,10.471-12.563,10.504"/>
<line style="fill:none;stroke:#000000;stroke-width:2;stroke-linejoin:round;stroke-miterlimit:10;" x1="46.182" y1="20.182" x2="32.084" y2="32"/>
<path style="fill:none;stroke:#000000;stroke-width:2;stroke-linecap:round;stroke-linejoin:round;stroke-miterlimit:10;" d="
	M24.943,26.889L43.12,6.557C44.13,5.427,46,6.141,46,7.656V56.35c0,1.503-1.842,2.227-2.86,1.122
	C34.299,47.873,7.996,19.318,7.91,19.251C7.709,19.093,7.456,19,7.182,19C6.529,19,6,19.529,6,20.182V45
	c0,0.652,0.529,1.182,1.182,1.182c0.353,0,0.668-0.157,0.886-0.401"/>
<path style="fill:none;stroke:#000000;stroke-width:2;stroke-linecap:round;stroke-linejoin:round;stroke-miterlimit:10;" d="
	M8.068,45.781l11.96-13.391"/>
<path style="fill:none;stroke:#000000;stroke-width:2;stroke-linecap:round;stroke-linejoin:round;stroke-miterlimit:10;" d="
	M44.98,6.132l11.661,5.982C57.475,12.542,58,13.401,58,14.339l0,35.313c0,0.936-0.523,1.794-1.355,2.223l-11.628,5.988"/>
<line style="fill:none;stroke:#000000;stroke-width:2;stroke-linecap:round;stroke-linejoin:round;stroke-miterlimit:10;" x1="11.909" y1="23.727" x2="11.909" y2="41.455"/>
<line style="fill:none;stroke:#000000;stroke-width:2;stroke-linecap:round;stroke-linejoin:round;stroke-miterlimit:10;" x1="54" y1="47" x2="52" y2="47"/>
<line style="fill:none;stroke:#000000;stroke-width:2;stroke-linecap:round;stroke-linejoin:round;stroke-miterlimit:10;" x1="54" y1="42" x2="52" y2="42"/>
<line style="fill:none;stroke:#000000;stroke-width:2;stroke-linecap:round;stroke-linejoin:round;stroke-miterlimit:10;" x1="54" y1="37" x2="52" y2="37"/>
<line style="fill:none;stroke:#000000;stroke-width:2;stroke-linecap:round;stroke-linejoin:round;stroke-miterlimit:10;" x1="54" y1="32" x2="52" y2="32"/>
<line style="fill:none;stroke:#000000;stroke-width:2;stroke-linecap:round;stroke-linejoin:round;stroke-miterlimit:10;" x1="54" y1="27" x2="52" y2="27"/>
<line style="fill:none;stroke:#000000;stroke-width:2;stroke-linecap:round;stroke-linejoin:round;stroke-miterlimit:10;" x1="54" y1="22" x2="52" y2="22"/>
<line style="fill:none;stroke:#000000;stroke-width:2;stroke-linecap:round;stroke-linejoin:round;stroke-miterlimit:10;" x1="54" y1="17" x2="52" y2="17"/>
</svg>